ply
format ascii 1.0
comment SYNTHETIC_DEMO - not reconstruction evidence
element vertex 42
property float x
property float y
property float z
property uchar red
property uchar green
property uchar blue
end_header
-2.0 -1.0 0.0 32 191 107
-1.5 -1.0 0.2 32 191 107
-1.0 -1.0 0.4 32 191 107
-0.5 -1.0 0.5 32 191 107
0.0 -1.0 0.55 245 163 11
0.5 -1.0 0.5 245 163 11
1.0 -1.0 0.4 245 163 11
1.5 -1.0 0.2 239 68 68
2.0 -1.0 0.0 239 68 68
-2.0 -0.5 0.2 32 191 107
-1.5 -0.5 0.5 32 191 107
-1.0 -0.5 0.8 32 191 107
-0.5 -0.5 1.0 32 191 107
0.0 -0.5 1.1 245 163 11
0.5 -0.5 1.0 245 163 11
1.0 -0.5 0.8 245 163 11
1.5 -0.5 0.5 239 68 68
2.0 -0.5 0.2 239 68 68
-2.0 0.0 0.4 32 191 107
-1.5 0.0 0.8 32 191 107
-1.0 0.0 1.2 32 191 107
-0.5 0.0 1.45 32 191 107
0.0 0.0 1.55 245 163 11
0.5 0.0 1.45 245 163 11
1.0 0.0 1.2 245 163 11
1.5 0.0 0.8 239 68 68
2.0 0.0 0.4 239 68 68
-1.75 0.6 0.1 32 191 107
-1.25 0.6 0.45 32 191 107
-0.75 0.6 0.8 32 191 107
-0.25 0.6 1.0 245 163 11
0.25 0.6 1.0 245 163 11
0.75 0.6 0.8 245 163 11
1.25 0.6 0.45 239 68 68
1.75 0.6 0.1 239 68 68
-1.5 1.0 0.0 32 191 107
-1.0 1.0 0.3 32 191 107
-0.5 1.0 0.55 245 163 11
0.0 1.0 0.65 245 163 11
0.5 1.0 0.55 245 163 11
1.0 1.0 0.3 239 68 68
1.5 1.0 0.0 239 68 68
